<svg width="25" height="25" viewBox="0 0 168 168" fill="none" xmlns="http://www.w3.org/2000/svg">
<g id="vuesax/linear/call">
<g id="call">
<g id="call_2">
<path id="Vector" d="M153.79 128.31C153.79 130.83 153.23 133.42 152.04 135.94C150.85 138.46 149.31 140.84 147.28 143.08C143.85 146.86 140.07 149.59 135.8 151.34C131.6 153.09 127.05 154 122.15 154C115.01 154 107.38 152.32 99.33 148.89C91.28 145.46 83.23 140.84 75.25 135.03C67.2 129.15 59.57 122.64 52.29 115.43C45.08 108.15 38.57 100.52 32.76 92.54C27.02 84.56 22.4 76.58 19.04 68.67C15.68 60.69 14 53.06 14 45.78C14 41.02 14.84 36.47 16.52 32.27C18.2 28 20.86 24.08 24.57 20.58C29.05 16.17 33.95 14 39.13 14C41.09 14 43.05 14.42 44.8 15.26C46.62 16.1 48.23 17.36 49.49 19.18L65.73 42.07C66.99 43.82 67.9 45.43 68.53 46.97C69.16 48.44 69.51 49.91 69.51 51.24C69.51 52.92 69.02 54.6 68.04 56.21C67.13 57.82 65.8 59.5 64.12 61.18L58.8 66.71C58.03 67.48 57.68 68.39 57.68 69.51C57.68 70.07 57.75 70.56 57.89 71.12C58.1 71.68 58.31 72.1 58.45 72.52C59.71 74.83 61.88 77.84 64.96 81.48C68.11 85.12 71.47 88.83 75.11 92.54C78.89 96.25 82.53 99.68 86.24 102.83C89.88 105.91 92.89 108.01 95.27 109.27C95.62 109.41 96.04 109.62 96.53 109.83C97.09 110.04 97.65 110.11 98.28 110.11C99.47 110.11 100.38 109.69 101.15 108.92L106.47 103.67C108.22 101.92 109.9 100.59 111.51 99.75C113.12 98.77 114.73 98.28 116.48 98.28C117.81 98.28 119.21 98.56 120.75 99.19C122.29 99.82 123.9 100.73 125.65 101.92L148.82 118.37C150.64 119.63 151.9 121.1 152.67 122.85C153.37 124.6 153.79 126.35 153.79 128.31Z" stroke="#3ECD81" stroke-width="11" stroke-miterlimit="10"/>
</g>
</g>
</g>
</svg>
