<svg width="25" height="25" viewBox="0 0 168 168" fill="none" xmlns="http://www.w3.org/2000/svg">
<path d="M84 143.5H49C28 143.5 14 133 14 108.5V59.5C14 35 28 24.5 49 24.5H119C140 24.5 154 35 154 59.5V80.5" stroke="#3ECD81" stroke-width="11" stroke-miterlimit="10" stroke-linecap="round" stroke-linejoin="round"/>
<path d="M119 63L97.09 80.5C89.88 86.24 78.05 86.24 70.84 80.5L49 63" stroke="#3ECD81" stroke-width="11" stroke-miterlimit="10" stroke-linecap="round" stroke-linejoin="round"/>
<path d="M134.47 103.39L109.69 128.17C108.71 129.15 107.8 130.97 107.59 132.3L106.26 141.75C105.77 145.18 108.15 147.56 111.58 147.07L121.03 145.74C122.36 145.53 124.25 144.62 125.16 143.64L149.94 118.86C154.21 114.59 156.24 109.62 149.94 103.32C143.71 97.0901 138.74 99.12 134.47 103.39Z" stroke="#3ECD81" stroke-width="11" stroke-miterlimit="10" stroke-linecap="round" stroke-linejoin="round"/>
<path d="M130.9 106.96C133 114.52 138.88 120.4 146.44 122.5" stroke="#3ECD81" stroke-width="11" stroke-miterlimit="10" stroke-linecap="round" stroke-linejoin="round"/>
</svg>
