<?xml version="1.0" encoding="UTF-8"?>
<svg width="24px" height="24px" viewBox="0 0 24 24" version="1.1" xmlns="http://www.w3.org/2000/svg" xmlns:xlink="http://www.w3.org/1999/xlink">
    <title>F7B8A31B-061D-4939-ABA4-F0EB15A72C59</title>
    <g id="Footer-2022" stroke="none" stroke-width="1" fill="none" fill-rule="evenodd">
        <g id="Example-darkmode" transform="translate(-926.000000, -1109.000000)">
            <g id="3---Modules/Footer/Web-1440" transform="translate(0.000000, 861.000000)">
                <g id="Footer" transform="translate(150.000000, 32.000000)">
                    <g id="Right" transform="translate(776.000000, 0.000000)">
                        <g id="social-media/facebook" transform="translate(0.000000, 216.000000)">
                            <rect id="BG" x="0" y="0" width="24" height="24"></rect>
                            <path d="M13.3781382,1.5 L13.1184379,1.50438703 C10.0495999,1.60936311 8.68992501,3.5870248 8.68992501,6.22173913 L8.689,7.586 L6.5,7.58695652 C6.22385763,7.58695652 6,7.81081415 6,8.08695652 L6,11.5652174 L6.00805567,11.655093 C6.05039163,11.8883422 6.25454011,12.0652174 6.5,12.0652174 L8.689,12.065 L8.68992501,22 C8.68992501,22.2761424 8.91378263,22.5 9.18992501,22.5 L13.6731334,22.5 L13.763009,22.4919443 C13.9962582,22.4496084 14.1731334,22.2454599 14.1731334,22 L14.173,12.065 L17.1261004,12.0652174 C17.3815576,12.0652174 17.595933,11.8726515 17.6232364,11.6186576 L17.9971359,8.14039671 L17.9989642,8.05307234 C17.9819301,7.79581626 17.7675624,7.58695652 17.5,7.58695652 L14.173,7.586 L14.1731334,6.43478261 C14.1548952,6.26850224 14.1871253,6.16929155 14.258288,6.09427658 C14.3329212,6.01560324 14.4424153,5.97214089 14.5562742,5.97767195 L17.2578353,5.98695304 C17.5347043,5.98798561 17.7597,5.76382739 17.7597,5.48695652 L17.7597,2 C17.7597,1.72385763 17.5358424,1.5 17.2597,1.5 L13.3781382,1.5 Z M16.759,2.5 L16.759,4.984 L14.5814387,4.97826169 C14.2013651,4.95925188 13.8088384,5.11506059 13.5327986,5.40604328 C13.2532882,5.70068435 13.1225172,6.10322415 13.177848,6.50328378 L13.1731334,8.08695652 L13.181189,8.17683215 C13.223525,8.41008136 13.4276735,8.58695652 13.6731334,8.58695652 L16.943,8.586 L16.676,11.065 L13.6731334,11.0652174 L13.5832577,11.0732731 C13.3500085,11.115609 13.1731334,11.3197575 13.1731334,11.5652174 L13.173,21.5 L9.689,21.5 L9.68992501,11.5652174 L9.68186934,11.4753418 C9.63953338,11.2420926 9.4353849,11.0652174 9.18992501,11.0652174 L7,11.065 L7,8.586 L9.18992501,8.58695652 C9.46606738,8.58695652 9.68992501,8.3630989 9.68992501,8.08695652 L9.68992501,6.22173913 C9.68992501,4.00761756 10.7651519,2.5 13.3781382,2.5 L16.759,2.5 Z" id="Shape" fill="#C9CCCF"></path>
                        </g>
                    </g>
                </g>
            </g>
        </g>
    </g>
</svg>