<?xml version="1.0" encoding="UTF-8"?>
<svg width="24px" height="24px" viewBox="0 0 24 24" version="1.1" xmlns="http://www.w3.org/2000/svg" xmlns:xlink="http://www.w3.org/1999/xlink">
    <title>4D33C4BB-CE77-4412-BD6E-86C445234C40</title>
    <g id="Footer-2022" stroke="none" stroke-width="1" fill="none" fill-rule="evenodd">
        <g id="Example-darkmode" transform="translate(-1182.000000, -1109.000000)">
            <g id="3---Modules/Footer/Web-1440" transform="translate(0.000000, 861.000000)">
                <g id="Footer" transform="translate(150.000000, 32.000000)">
                    <g id="Right" transform="translate(776.000000, 0.000000)">
                        <g id="Social-Media" transform="translate(0.000000, 216.000000)">
                            <g id="social-media/instagram" transform="translate(256.000000, 0.000000)">
                                <rect id="BG" x="0" y="0" width="24" height="24"></rect>
                                <path d="M16,1.5 C19.5898509,1.5 22.5,4.41014913 22.5,8 L22.5,16 C22.5,19.5898509 19.5898509,22.5 16,22.5 L8,22.5 C4.41014913,22.5 1.5,19.5898509 1.5,16 L1.5,8 C1.5,4.41014913 4.41014913,1.5 8,1.5 Z M16,2.5 L8,2.5 C4.96243388,2.5 2.5,4.96243388 2.5,8 L2.5,16 C2.5,19.0375661 4.96243388,21.5 8,21.5 L16,21.5 C19.0375661,21.5 21.5,19.0375661 21.5,16 L21.5,8 C21.5,4.96243388 19.0375661,2.5 16,2.5 Z M12,6.5 C15.0375661,6.5 17.5,8.96243388 17.5,12 C17.5,15.0375661 15.0375661,17.5 12,17.5 C8.96243388,17.5 6.5,15.0375661 6.5,12 C6.5,8.96243388 8.96243388,6.5 12,6.5 Z M12,7.5 C9.51471863,7.5 7.5,9.51471863 7.5,12 C7.5,14.4852814 9.51471863,16.5 12,16.5 C14.4852814,16.5 16.5,14.4852814 16.5,12 C16.5,9.51471863 14.4852814,7.5 12,7.5 Z M18,4 C19.1045695,4 20,4.8954305 20,6 C20,7.1045695 19.1045695,8 18,8 C16.8954305,8 16,7.1045695 16,6 C16,4.8954305 16.8954305,4 18,4 Z M18,5 C17.4477153,5 17,5.44771525 17,6 C17,6.55228475 17.4477153,7 18,7 C18.5522847,7 19,6.55228475 19,6 C19,5.44771525 18.5522847,5 18,5 Z" id="Combined-Shape" fill="#C9CCCF"></path>
                            </g>
                        </g>
                    </g>
                </g>
            </g>
        </g>
    </g>
</svg>