<?xml version="1.0" encoding="UTF-8"?>
<svg width="24px" height="24px" viewBox="0 0 24 24" version="1.1" xmlns="http://www.w3.org/2000/svg" xmlns:xlink="http://www.w3.org/1999/xlink">
    <title>8634DFF5-3A7D-4E97-B88C-A213B465CC2A</title>
    <g id="Footer-2022" stroke="none" stroke-width="1" fill="none" fill-rule="evenodd">
        <g id="Example-darkmode" transform="translate(-1118.000000, -1109.000000)">
            <g id="3---Modules/Footer/Web-1440" transform="translate(0.000000, 861.000000)">
                <g id="Footer" transform="translate(150.000000, 32.000000)">
                    <g id="Right" transform="translate(776.000000, 0.000000)">
                        <g id="Social-Media" transform="translate(0.000000, 216.000000)">
                            <g id="social-media/linkedin" transform="translate(192.000000, 0.000000)">
                                <rect id="BG" x="0" y="0" width="24" height="24"></rect>
                                <path d="M6.5,8 C6.74545989,8 6.94960837,8.17687516 6.99194433,8.41012437 L7,8.5 L7,21.5 C7,21.7454599 6.82312484,21.9496084 6.58987563,21.9919443 L6.5,22 L1.5,22 C1.25454011,22 1.05039163,21.8231248 1.00805567,21.5898756 L1,21.5 L1,8.5 C1,8.25454011 1.17687516,8.05039163 1.41012437,8.00805567 L1.5,8 L6.5,8 Z M17.49,7.99 C20.7930876,7.99 22.904636,10.4604368 22.9968514,14.5627761 L23,14.845 L23,21.5 C23,21.7454599 22.8231248,21.9496084 22.5898756,21.9919443 L22.5,22 L17.5,22 C17.2545401,22 17.0503916,21.8231248 17.0080557,21.5898756 L17,21.5 L17,14.5 C17,13.6715729 16.3284271,13 15.5,13 C14.7203039,13 14.0795513,13.5948881 14.0068666,14.35554 L14,14.5 L14,21.5 C14,21.7454599 13.8231248,21.9496084 13.5898756,21.9919443 L13.5,22 L8.5,22 C8.25454011,22 8.05039163,21.8231248 8.00805567,21.5898756 L8,21.5 L8,8.5 C8,8.25454011 8.17687516,8.05039163 8.41012437,8.00805567 L8.5,8 L13.5,8 C13.7454599,8 13.9496084,8.17687516 13.9919443,8.41012437 L14,8.5 L14,9.006 L14.135788,8.92376648 C14.969419,8.43516772 15.8996717,8.12847338 16.8647692,8.02683038 L17.1876742,8.00057562 L17.49,7.99 Z M6,9 L2,9 L2,21 L6,21 L6,9 Z M17.4969638,8.9899515 C16.1498008,9.00871612 14.8510819,9.49532884 13.823279,10.3664324 C13.5200565,10.6234255 13.0656818,10.4394083 13.0064462,10.0674823 L13,9.985 L13,8.999 L9,8.999 L9,21 L13,21 L13,14.5 C13,13.2297451 13.9473655,12.1807592 15.1740877,12.0210511 L15.3356243,12.0053177 L15.5,12 C16.8254834,12 17.9100387,13.0315359 17.9946823,14.3356243 L18,14.5 L18,21 L22,21 L22,14.845 C22,11.2786775 20.4397644,9.20685394 17.9041519,9.00609747 L17.6964358,8.99392758 L17.4969638,8.9899515 Z M4,1 C4.79564947,1 5.55871121,1.31607052 6.12132034,1.87867966 C6.68392948,2.44128879 7,3.20435053 7,4 C7,5.65685425 5.65685425,7 4,7 C2.34314575,7 1,5.65685425 1,4 C1,2.34314575 2.34314575,1 4,1 Z M4,2 C2.8954305,2 2,2.8954305 2,4 C2,5.1045695 2.8954305,6 4,6 C5.1045695,6 6,5.1045695 6,4 C6,3.46956702 5.78928632,2.96085919 5.41421356,2.58578644 C5.03914081,2.21071368 4.53043298,2 4,2 Z" id="Shape" fill="#C9CCCF"></path>
                            </g>
                        </g>
                    </g>
                </g>
            </g>
        </g>
    </g>
</svg>