<?xml version="1.0" encoding="UTF-8"?>
<svg width="24px" height="24px" viewBox="0 0 24 24" version="1.1" xmlns="http://www.w3.org/2000/svg" xmlns:xlink="http://www.w3.org/1999/xlink">
    <title>91DCFEE3-E78E-492F-891E-0CF1F2E6AF6B</title>
    <g id="Footer-2022" stroke="none" stroke-width="1" fill="none" fill-rule="evenodd">
        <g id="Example-darkmode" transform="translate(-1246.000000, -1109.000000)">
            <g id="3---Modules/Footer/Web-1440" transform="translate(0.000000, 861.000000)">
                <g id="Footer" transform="translate(150.000000, 32.000000)">
                    <g id="Right" transform="translate(776.000000, 0.000000)">
                        <g id="Social-Media" transform="translate(0.000000, 216.000000)">
                            <g id="social-media/youtube" transform="translate(320.000000, 0.000000)">
                                <rect id="BG" x="0" y="0" width="24" height="24"></rect>
                                <path d="M17.2179625,0 L12.8739804,0 L12.8378909,16.5474007 C12.8378896,18.1839047 11.3573533,19.5422609 9.6094018,19.5422609 C7.9063346,19.5422609 6.52602643,18.1824601 6.52602643,16.5046957 C6.52602643,14.8260254 7.90619487,13.466087 9.6094018,13.466087 L9.70956935,13.4713988 L10.5764652,13.5786559 L10.5764652,9.06236762 L9.74167443,9.00969755 C9.69661833,9.0080187 9.6552433,9.00730435 9.6094018,9.00730435 C5.40628519,9.00730435 2,12.3629819 2,16.5036522 C2,20.6436273 5.40663874,24 9.6094018,24 L9.86565543,23.9958277 C13.9491153,23.8626649 17.2188036,20.5587968 17.2188036,16.5036522 L17.2188036,8.51269565 L17.2989662,8.58913549 C18.4743289,9.67647794 20.0037125,10.3229687 21.6062788,10.3597714 L22.0210914,10.3555246 L22.501492,10.3305779 L23,10.3016896 L23,5.50454486 L22.508973,5.4692123 C19.7629555,5.27161864 17.5556012,3.1649524 17.2678044,0.467207003 L17.2179625,0 Z M13.9299405,1.04347826 L16.2813982,1.04347826 L16.2869797,1.07550229 C16.7867248,3.78158917 18.9325283,5.89916576 21.6575398,6.40993664 L21.9407848,6.456 L21.9407848,9.31304348 L21.8824997,9.3163008 C20.0033163,9.36304724 18.2021498,8.39122985 17.1323484,6.78074313 L16.1595884,5.31634318 L16.1595884,16.5036522 C16.1595884,20.0669819 13.2264708,22.9565217 9.6094018,22.9565217 C5.99165163,22.9565217 3.05921517,20.0673543 3.05921517,16.5036522 L3.06353431,16.2670529 C3.18699647,12.8908443 5.9421084,10.1766654 9.36923429,10.0550376 L9.51725008,10.0528696 L9.51725008,12.4246957 L9.6094018,12.4226087 C7.32115847,12.4226087 5.46681126,14.2497756 5.46681126,16.5046957 C5.46681126,18.7587573 7.32134622,20.5857391 9.6094018,20.5857391 L9.82553542,20.5804838 C12.0474221,20.4723102 13.8971048,18.707794 13.8971048,16.5485217 L13.9299405,1.04347826 Z" id="Stroke-1" fill="#C9CCCF"></path>
                            </g>
                        </g>
                    </g>
                </g>
            </g>
        </g>
    </g>
</svg>