<?xml version="1.0" encoding="UTF-8"?>
<svg width="24px" height="24px" viewBox="0 0 24 24" version="1.1" xmlns="http://www.w3.org/2000/svg" xmlns:xlink="http://www.w3.org/1999/xlink">
    <title>C561CD8A-63BB-4449-BF9E-EFA9B88ABD6C</title>
    <g id="Footer-2022" stroke="none" stroke-width="1" fill="none" fill-rule="evenodd">
        <g id="Example-darkmode" transform="translate(-990.000000, -1109.000000)">
            <g id="3---Modules/Footer/Web-1440" transform="translate(0.000000, 861.000000)">
                <g id="Footer" transform="translate(150.000000, 32.000000)">
                    <g id="Right" transform="translate(776.000000, 0.000000)">
                        <g id="Social-Media" transform="translate(0.000000, 216.000000)">
                            <g id="social-media/twitter" transform="translate(64.000000, 0.000000)">
                                <rect id="BG" x="0" y="0" width="24" height="24"></rect>
                                <path d="M14.2751505,3.01471934 C12.5731223,3.8546385 11.489683,5.59577117 11.5000073,7.50699915 L11.5,8.083 L11.3564304,8.10492396 C8.47211319,8.46954126 5.73177587,6.96293633 2.87750464,3.67644119 C2.60326817,3.36067693 2.0856381,3.50109161 2.00856391,3.91215397 L1.95410778,4.22350084 C1.63723607,6.17841964 1.85284755,7.81097798 2.60999833,9.09775297 L2.726,9.285 L1.08219949,9.01110128 C0.737913236,8.95372024 0.442262401,9.2578142 0.509312418,9.60034874 L0.563189761,9.8581436 C0.978071341,11.7210454 1.83114902,12.9765028 3.32125129,13.5994183 L3.369,13.618 L2.31430466,14.0400599 C2.04270659,14.1486991 1.92196745,14.4662671 2.0527864,14.727905 L2.15236632,14.9200892 C2.92517812,16.3582341 3.92289538,16.9923124 5.80044696,17.3100464 L5.997,17.341 L5.95478142,17.3642466 C4.43560972,18.1489835 2.73667308,18.5448134 1.01170083,18.5044352 C0.465324789,18.4916456 0.297507551,19.2392338 0.796927443,19.4612025 C6.84267892,22.1482559 12.1373404,21.9370582 16.062261,19.2960022 L16.3508344,19.0954343 C19.5828351,16.7761568 21.5,12.9019686 21.5,9.00429824 L21.5,7.909 L23.3206955,6.38790532 L23.3855076,6.32334265 C23.6147617,6.05006596 23.4873607,5.6107502 23.1212678,5.51922699 L21.725,5.17 L22.4472136,3.72790504 L22.4788476,3.64971169 C22.5933435,3.28361894 22.2536341,2.91245767 21.8633615,3.02333056 L19.66,3.649 L19.515944,3.53244477 C18.0862896,2.43229991 16.1574551,2.18476874 14.4823327,2.91830165 L14.2751505,3.01471934 Z M19.2630709,4.62324879 C19.3830203,4.7014027 19.5322601,4.72514617 19.6726385,4.68526592 L21.044,4.295 L20.5527864,5.28069144 L20.5211403,5.35993471 C20.4398376,5.62731144 20.5966201,5.91884146 20.8787322,5.98936949 L21.925,6.251 L20.6793045,7.29269117 C20.5656686,7.38769081 20.5,7.52818323 20.5,7.67629824 L20.5,9.00429824 C20.5,12.6902939 18.6282009,16.3640805 15.503989,18.4663442 L15.2549191,18.6291025 C12.1581985,20.5934692 8.14435645,20.964672 3.50701314,19.4399886 L3.199,19.335 L3.26899253,19.3248431 C4.88964089,19.0293507 6.43515941,18.379662 7.79068101,17.4111207 C8.17045967,17.139763 8.0042585,16.54214 7.53891203,16.5058147 L7.25641203,16.4824647 C5.04613736,16.2889004 4.01705664,15.925718 3.28977548,14.8691704 L3.215,14.756 L5.18569534,13.9685366 C5.6680417,13.775598 5.57267295,13.0662012 5.0564971,13.0075004 L4.83240217,12.9781016 C3.14717175,12.7263906 2.2124822,11.8677534 1.71328198,10.2944903 L1.661,10.121 L3.91780051,10.4974952 C4.41256479,10.5799559 4.70707417,9.96383114 4.33218192,9.63059358 L4.16746203,9.47678732 C3.15393694,8.48224603 2.7049543,7.09885505 2.8334085,5.29326422 L2.847,5.131 L2.91172065,5.19975759 C5.89314211,8.32060317 8.88018323,9.65835841 12.10101,8.99398895 C12.3333278,8.94606807 12.5,8.74150697 12.5,8.50429824 L12.5,7.50429824 C12.4914115,5.91305217 13.4282919,4.47153932 14.8834576,3.83432503 C16.3386233,3.19711074 18.0333517,3.48624718 19.1949213,4.5699009 L19.2630709,4.62324879 Z" id="Shape" fill="#FFFFFF"></path>
                            </g>
                        </g>
                    </g>
                </g>
            </g>
        </g>
    </g>
</svg>