<?xml version="1.0" encoding="UTF-8"?>
<svg width="24px" height="24px" viewBox="0 0 24 24" version="1.1" xmlns="http://www.w3.org/2000/svg" xmlns:xlink="http://www.w3.org/1999/xlink">
    <title>1C6A955D-74D7-4102-A9B5-8481BDB16120</title>
    <g id="Footer-2022" stroke="none" stroke-width="1" fill="none" fill-rule="evenodd">
        <g id="Example-darkmode" transform="translate(-1054.000000, -1109.000000)">
            <g id="3---Modules/Footer/Web-1440" transform="translate(0.000000, 861.000000)">
                <g id="Footer" transform="translate(150.000000, 32.000000)">
                    <g id="Right" transform="translate(776.000000, 0.000000)">
                        <g id="Social-Media" transform="translate(0.000000, 216.000000)">
                            <g id="social-media/youtube" transform="translate(127.999999, 0.000000)">
                                <rect id="BG" x="8.93695685e-07" y="0" width="24" height="24"></rect>
                                <path d="M20.0620009,3 C21.1066219,3 22.1084413,3.41505245 22.8469924,4.15381844 C23.5327901,4.83981563 23.9394012,5.75273323 23.9937458,6.71591534 L24.0000002,6.939 L24.0000002,16.0597088 C24.0006087,17.1045282 23.5859819,18.1067627 22.8473976,18.8457767 C22.1615695,19.5320037 21.2486185,19.9390323 20.2851549,19.9936781 L20.0620009,20 L3.93685554,20 C2.89223445,19.9996963 1.89053573,19.5843525 1.15219933,18.8453716 C0.46660143,18.1591753 0.0602556788,17.2461397 0.00619021931,16.2830576 L1.65959861e-07,16.06 L1.65959861e-07,6.93914514 C-0.000302832522,5.89472254 0.414301149,4.8929563 1.15260442,4.15422341 C1.83817191,3.46825698 2.75070089,3.06126688 3.71378754,3.00638207 L3.93685548,3 L20.0620009,3 Z M3.93714631,3.99999998 C3.15794025,4.00022659 2.41073847,4.30998234 1.85991684,4.86112449 C1.35916998,5.36216274 1.0580102,6.02538268 1.00756222,6.72736564 L0.99999973,6.939 L0.99999973,16.0602906 C0.999547315,16.839645 1.30876839,17.5872465 1.85961451,18.1385734 C2.36038378,18.6397798 3.02353747,18.9414374 3.72540342,18.9923123 L3.93700089,19 L20.0620009,19 C20.8415033,19 21.5890543,18.690227 22.1400852,18.1388755 C22.6410226,17.6376468 22.9422136,16.9741211 22.9924945,16.2717524 L22.9999997,16.06 L22.9999997,6.93885425 C23.0002275,6.15950047 22.6907894,5.41198919 22.1397828,4.86082239 C21.6388679,4.35976176 20.9756266,4.05829699 20.2736367,4.00762622 L20.0620009,3.99999998 L3.93714631,3.99999998 Z M9.69676804,6.31901142 L9.76947654,6.35783153 L16.5384765,10.6888315 C16.8179348,10.8676369 16.8433012,11.2550374 16.6146155,11.4717208 L16.5383882,11.531225 L9.76938823,15.860225 C9.46034875,16.057866 9.06183943,15.8658921 9.00648626,15.521158 L9.00000089,15.439 L9.00000089,6.779 C9.00000089,6.44269508 9.31637842,6.21948212 9.6157834,6.29181855 L9.69676804,6.31901142 Z M10.0000009,7.693 L10.0000009,14.525 L15.3400009,11.109 L10.0000009,7.693 Z" id="Shape" fill="#C9CCCF"></path>
                            </g>
                        </g>
                    </g>
                </g>
            </g>
        </g>
    </g>
</svg>